Coordinates
version=1
nRows=14
nColumns=40
inDegrees=yes

Units are S.I. units (second, meters, Newtons, ...)
If the header above contains a line with 'inDegrees', this indicates whether rotational values are in degrees (yes) or radians (no).

endheader
time	pelvis_tilt	pelvis_list	pelvis_rotation	pelvis_tx	pelvis_ty	pelvis_tz	hip_flexion_r	hip_adduction_r	hip_rotation_r	knee_angle_r	knee_angle_r_beta	ankle_angle_r	subtalar_angle_r	mtp_angle_r	hip_flexion_l	hip_adduction_l	hip_rotation_l	knee_angle_l	knee_angle_l_beta	ankle_angle_l	subtalar_angle_l	mtp_angle_l	lumbar_extension	lumbar_bending	lumbar_rotation	arm_flex_r	arm_add_r	arm_rot_r	elbow_flex_r	pro_sup_r	wrist_flex_r	wrist_dev_r	arm_flex_l	arm_add_l	arm_rot_l	elbow_flex_l	pro_sup_l	wrist_flex_l	wrist_dev_l
      0.41000000	     11.27969403	     -0.65241947	     -1.27197958	      0.29287671	      0.95204923	     -0.21401884	    -15.88582137	      5.20397884	      2.65003747	     10.03434440	      0.17513235	     12.71439891	      0.00000000	      0.00000000	     12.94518104	     -0.50673782	     -2.98409788	     29.93761310	      0.52250992	      9.01449354	      0.00000000	      0.00000000	    -29.95889517	     -1.21271028	      8.94936059	      8.98760720	     -4.08093197	      1.78864896	     42.96138012	     89.20363861	    -21.38211201	     -9.33464400	     -1.50056258	     -6.95852717	     22.32909963	     29.92612135	     89.44608758	      6.49922096	     18.87728459
      0.42000000	     11.08237764	     -0.50577119	     -1.30990242	      0.30571617	      0.95038543	     -0.21471080	    -16.57463636	      5.01671863	      2.56494853	      9.93124535	      0.17333293	     13.24486590	      0.00000000	      0.00000000	     13.07355013	      0.00957648	     -2.63056375	     25.90405773	      0.45211110	      8.93790708	      0.00000000	      0.00000000	    -29.69859038	     -1.42683692	      9.13046697	      9.42148633	     -4.18844419	      1.86435998	     43.84143148	     89.20992913	    -21.18956941	     -9.25442554	     -1.99633770	     -6.85219613	     22.30883617	     29.30797391	     89.44226666	      6.39528824	     18.85613399
      0.43000000	     10.75889896	     -0.48169191	     -1.26174972	      0.31855821	      0.94834054	     -0.21560786	    -17.09418350	      4.97680092	      2.45938774	      9.91260706	      0.17300763	     13.75492827	      0.00000000	      0.00000000	     13.30150321	      0.42080440	     -1.83661166	     21.98888340	      0.38377841	      8.74273854	      0.00000000	      0.00000000	    -29.28512092	     -1.46478711	      9.25920869	      9.85113301	     -4.29328693	      2.00532098	     44.60588728	     89.21524286	    -21.10373642	     -9.30303212	     -2.50539521	     -6.71950672	     22.12408260	     28.71550214	     89.43840563	      6.30926021	     18.88726913
      0.44000000	     10.65449929	     -0.43460691	     -1.29040251	      0.33161529	      0.94658157	     -0.21637534	    -17.88110036	      4.88252841	      2.31133093	      9.84506850	      0.17182886	     14.22157594	      0.00000000	      0.00000000	     13.15761926	      0.79633679	     -1.04015785	     18.13201443	      0.31646335	      8.23131937	      0.00000000	      0.00000000	    -29.10641171	     -1.56996040	      9.41327545	     10.25694751	     -4.38659772	      2.15337198	     45.36936149	     89.22214290	    -20.98442474	     -9.35843406	     -3.04240376	     -6.64263116	     21.91623250	     28.31884374	     89.43514481	      6.20042239	     18.80737587
      0.45000000	     10.46946401	     -0.51477364	     -1.30979098	      0.34475318	      0.94459096	     -0.21710737	    -18.54605687	      4.92427683	      2.23423178	      9.86850453	      0.17223790	     14.56729478	      0.00000000	      0.00000000	     13.10103004	      0.98008302	     -0.05346165	     14.66315151	      0.25592027	      7.73543827	      0.00000000	      0.00000000	    -28.82629943	     -1.54568500	      9.58069511	     10.63484558	     -4.46965317	      2.33287333	     46.04922969	     89.22740398	    -20.88729635	     -9.47593048	     -3.57685305	     -6.55405024	     21.61183909	     27.92970008	     89.43131963	      6.07013366	     18.73162957
      0.46000000	     10.25259015	     -0.65110212	     -1.30487133	      0.35796397	      0.94248822	     -0.21784340	    -19.14073267	      5.02963438	      2.20569567	      9.98736919	      0.17431248	     14.86972168	      0.00000000	      0.00000000	     13.10501945	      1.03870708	      0.92010228	     11.68928923	      0.20401658	      7.20655094	      0.00000000	      0.00000000	    -28.50415373	     -1.45615200	      9.74331283	     10.97345286	     -4.53440174	      2.49225653	     46.64720663	     89.23426886	    -20.83613467	     -9.66156933	     -4.06342661	     -6.46375648	     21.30617071	     27.52809976	     89.42780502	      5.95577554	     18.67444590
      0.47000000	     10.03691692	     -0.81474458	     -1.36180285	      0.37130274	      0.94038369	     -0.21849092	    -19.70603038	      5.12793080	      2.16751608	     10.18615912	      0.17778201	     15.07738805	      0.00000000	      0.00000000	     13.14786388	      0.99482948	      1.72055829	      9.31506845	      0.16257861	      6.80808157	      0.00000000	      0.00000000	    -28.17143096	     -1.35868735	      9.96582575	     11.27738307	     -4.58690812	      2.64827888	     47.16693315	     89.23553576	    -20.80580260	     -9.87630109	     -4.51235802	     -6.39695722	     21.04741425	     27.16957552	     89.42180245	      5.86529489	     18.62489906
      0.48000000	      9.88400230	     -0.94939625	     -1.43730044	      0.38497592	      0.93841951	     -0.21917373	    -20.31902552	      5.17454687	      2.08427251	     10.48027199	      0.18291525	     15.18372154	      0.00000000	      0.00000000	     13.15542039	      0.93938294	      2.19963180	      7.58416527	      0.13236865	      6.52440133	      0.00000000	      0.00000000	    -27.88107072	     -1.31204578	     10.16951025	     11.49171611	     -4.61757961	      2.79441564	     47.62907910	     89.24086271	    -20.78693261	    -10.12837864	     -4.95790286	     -6.33961578	     20.84352722	     26.84529621	     89.41672770	      5.79206600	     18.56199816
      0.49000000	      9.99032715	     -0.93103455	     -1.61459710	      0.39882697	      0.93703859	     -0.21973358	    -21.16387820	      5.00161880	      2.12048326	     10.87786291	      0.18985452	     15.13906662	      0.00000000	      0.00000000	     12.87230829	      1.00829067	      2.18190552	      6.41645937	      0.11198834	      6.16285077	      0.00000000	      0.00000000	    -27.87967136	     -1.46338822	     10.34608360	     11.68787941	     -4.59544292	      2.89681928	     47.98106290	     89.24635196	    -20.83792351	    -10.74987668	     -5.36725956	     -6.29635211	     20.55228757	     26.54329589	     89.41142851	      5.64920081	     18.27692024
      0.50000000	      9.92416549	     -0.96590080	     -1.72387568	      0.41273631	      0.93544762	     -0.22050675	    -21.71233375	      4.88088649	      2.01979723	     11.51603552	      0.20099274	     14.96613097	      0.00000000	      0.00000000	     12.88964641	      1.02980689	      2.16608406	      6.01950933	      0.10506026	      6.21142640	      0.00000000	      0.00000000	    -27.66946001	     -1.51555834	     10.50986916	     11.82358590	     -4.59011997	      3.00257497	     48.25048964	     89.25000804	    -20.86662400	    -11.02391768	     -5.67647589	     -6.26190965	     20.46357930	     26.20452542	     89.40814320	      5.60051041	     18.23868821
      0.51000000	      9.93375828	     -0.90627584	     -1.82934321	      0.42686782	      0.93413853	     -0.22132233	    -22.25835535	      4.64136784	      1.94429120	     12.34520235	      0.21546443	     14.59647929	      0.00000000	      0.00000000	     12.84131197	      1.15073324	      1.93347692	      6.18569412	      0.10796073	      6.31065951	      0.00000000	      0.00000000	    -27.55379787	     -1.65644958	     10.58478143	     11.88848564	     -4.53033256	      3.04914758	     48.48423941	     89.26144970	    -20.89739797	    -11.27981582	     -5.93144172	     -6.24262472	     20.43289938	     25.86431981	     89.40954013	      5.57977244	     18.21876797
      0.52000000	     10.02973959	     -0.78110477	     -2.13200920	      0.44120833	      0.93316828	     -0.22207272	    -22.76114523	      4.20852484	      1.88591686	     13.44528646	      0.23466452	     14.11930522	      0.00000000	      0.00000000	     12.67996382	      1.30843774	      1.19850155	      6.82601278	      0.11913640	      6.43276737	      0.00000000	      0.00000000	    -27.50244761	     -1.94079221	     10.85480053	     11.86700561	     -4.50491081	      3.05865206	     48.58441789	     89.25535877	    -20.99845669	    -11.80288777	     -6.11862076	     -6.20925728	     20.46435592	     25.54795402	     89.39806463	      5.57302336	     18.10534813
      0.53000000	     10.19250384	     -0.58759929	     -2.30427482	      0.45573025	      0.93249828	     -0.22293405	    -23.22016276	      3.73906875	      1.80918106	     14.77563057	      0.25788340	     13.35406348	      0.00000000	      0.00000000	     12.44385924	      1.56647011	      0.85153329	      7.84717093	      0.13695897	      6.50170374	      0.00000000	      0.00000000	    -27.52219185	     -2.25276159	     10.95110930	     11.80626110	     -4.41035181	      3.02646204	     48.56330248	     89.26479835	    -21.06149162	    -12.04823503	     -6.23476524	     -6.21247336	     20.52590477	     25.22196919	     89.40920881	      5.58230641	     18.09394924
      0.54000000	     10.41365153	     -0.37388021	     -2.51995384	      0.47045228	      0.93207436	     -0.22404333	    -23.56643958	      3.16620171	      1.62946953	     16.43411005	      0.28682933	     12.36389335	      0.00000000	      0.00000000	     12.11970871	      1.85892351	      0.27894052	      9.16015138	      0.15987480	      6.54822286	      0.00000000	      0.00000000	    -27.57958616	     -2.56667787	     11.06177809	     11.66818390	     -4.34794242	      2.98609890	     48.46077383	     89.26982790	    -21.13341755	    -12.30578325	     -6.32371670	     -6.18784573	     20.64574228	     24.94361749	     89.41293471	      5.61584192	     18.08606217
